<?xml version="1.0" encoding="utf-8"?>
<!-- Generator: Adobe Illustrator 26.2.1, SVG Export Plug-In . SVG Version: 6.00 Build 0)  -->
<svg version="1.1" id="Calque_1" xmlns="http://www.w3.org/2000/svg" xmlns:xlink="http://www.w3.org/1999/xlink" x="0px" y="0px"
	 viewBox="0 0 1073 1562" style="enable-background:new 0 0 1073 1562;" xml:space="preserve">
<style type="text/css">
	.st0{fill:none;}
	.st1{fill:#005EFF;}
	.st2{fill:#CCCCCC;}
	.st3{fill:#FFFFFF;}
</style>
<g id="icomoon-ignore">
</g>
<g>
	<rect x="706.7" y="484.1" class="st0" width="0.4" height="472.8"/>
	<path class="st0" d="M72.3,956.9H642V65.8H72.3V956.9z M424.4,230.7H489v119h-64.6V230.7z M424.4,470.5H489v119h-64.6V470.5z
		 M424.4,708.6H489v119h-64.6V708.6z M225.4,230.7H290v119h-64.6V230.7z M225.4,470.5H290v119h-64.6V470.5z M225.4,708.6H290v119
		h-64.6V708.6z"/>
	<rect x="424.4" y="230.7" class="st1" width="64.6" height="119"/>
	<rect x="424.4" y="470.5" class="st1" width="64.6" height="119"/>
	<rect x="793.4" y="606.6" class="st2" width="125.8" height="64.6"/>
	<rect x="793.4" y="766.4" class="st2" width="125.8" height="64.6"/>
	<path class="st1" d="M706.7,1.2H7.7v1020.4h699l0,0h0.4V957h-0.4 M642.1,956.9H72.3V65.8H642L642.1,956.9L642.1,956.9L642.1,956.9z
		"/>
	<path class="st2" d="M749.4,419.5v64.6h251.5l0,0V894c0,35.7-28.9,62.9-62.9,62.9H749.4v64.6H938c71.4,0,127.5-57.8,127.5-127.5
		V419.5H749.4z"/>
	<rect x="225.4" y="708.6" class="st1" width="64.6" height="119"/>
	<rect x="225.4" y="470.5" class="st1" width="64.6" height="119"/>
	<rect x="424.4" y="708.6" class="st1" width="64.6" height="119"/>
	<rect x="225.4" y="230.7" class="st1" width="64.6" height="119"/>
	<rect x="707.1" y="1021.5" class="st3" width="42.3" height="10.6"/>
</g>
<g>
	<path class="st1" d="M235,1403c0-11.5-4-20.3-12.1-26.5s-22.6-12.5-43.6-18.8c-21-6.3-37.7-13.4-50.1-21.1
		c-23.8-14.9-35.6-34.4-35.6-58.3c0-21,8.6-38.3,25.7-51.9c17.1-13.6,39.4-20.4,66.7-20.4c18.1,0,34.3,3.3,48.5,10
		s25.4,16.2,33.5,28.6c8.1,12.3,12.2,26,12.2,41.1H235c0-13.6-4.3-24.2-12.8-31.9s-20.7-11.5-36.6-11.5c-14.8,0-26.3,3.2-34.5,9.5
		s-12.3,15.2-12.3,26.5c0,9.6,4.4,17.5,13.2,23.9c8.8,6.4,23.4,12.6,43.7,18.6s36.6,12.9,48.9,20.6c12.3,7.7,21.3,16.5,27,26.5
		s8.6,21.6,8.6,35c0,21.7-8.3,39-25,51.8s-39.2,19.2-67.8,19.2c-18.9,0-36.2-3.5-52-10.5s-28.1-16.6-36.9-28.9s-13.2-26.6-13.2-43
		h45.3c0,14.8,4.9,26.2,14.7,34.4c9.8,8.1,23.8,12.2,42.1,12.2c15.8,0,27.6-3.2,35.5-9.6C231,1422,235,1413.5,235,1403z"/>
	<path class="st1" d="M315.9,1226.2c0-6.7,2.1-12.2,6.4-16.7c4.2-4.4,10.3-6.6,18.2-6.6s14,2.2,18.3,6.6c4.3,4.4,6.4,10,6.4,16.7
		c0,6.6-2.1,12-6.4,16.4c-4.3,4.4-10.4,6.5-18.3,6.5s-13.9-2.2-18.2-6.5C318,1238.2,315.9,1232.8,315.9,1226.2z M362.1,1470.2h-43.5
		v-193.7h43.5V1470.2z"/>
	<path class="st1" d="M494.7,1473.8c-27.6,0-49.9-8.7-67-26s-25.7-40.5-25.7-69.4v-5.4c0-19.3,3.7-36.6,11.2-51.8
		c7.5-15.2,17.9-27.1,31.4-35.5s28.5-12.7,45.1-12.7c26.4,0,46.8,8.4,61.1,25.2s21.6,40.6,21.6,71.4v17.5H445.9
		c1.3,16,6.6,28.6,16,37.9c9.4,9.3,21.1,14,35.4,14c19.9,0,36.2-8.1,48.7-24.2l23.5,22.4c-7.8,11.6-18.1,20.6-31,26.9
		C525.4,1470.6,510.8,1473.8,494.7,1473.8z M509.2,1249.4l-36.2,0.1l-48.3-54.2h49.6L509.2,1249.4z M489.5,1307.8
		c-11.9,0-21.6,4.2-28.9,12.5s-12,20-14,34.9h82.9v-3.2c-1-14.6-4.8-25.6-11.6-33C511,1311.6,501.6,1307.8,489.5,1307.8z"/>
	<path class="st1" d="M598.5,1371.9c0-30.1,7.1-54.1,21.2-72.1c14.1-18,32.9-26.9,56.3-26.9c22.1,0,39.4,7.7,52.1,23.1l2-19.5h39.2
		v187.8c0,25.4-7.9,45.5-23.7,60.1c-15.8,14.7-37.1,22-64,22c-14.2,0-28.1-2.9-41.6-8.9c-13.5-5.9-23.8-13.6-30.9-23.2l20.6-26.1
		c13.4,15.9,29.8,23.8,49.4,23.8c14.4,0,25.8-3.9,34.2-11.7c8.3-7.8,12.5-19.3,12.5-34.5v-13.1c-12.5,14-29.2,20.9-50.1,20.9
		c-22.7,0-41.2-9-55.6-27C605.7,1428.7,598.5,1403.8,598.5,1371.9z M641.9,1375.7c0,19.4,4,34.8,11.9,45.9
		c7.9,11.2,18.9,16.7,33,16.7c17.5,0,30.5-7.5,39-22.6v-85.2c-8.2-14.7-21.1-22-38.7-22c-14.3,0-25.5,5.7-33.4,17
		C645.8,1336.9,641.9,1353.6,641.9,1375.7z"/>
	<path class="st1" d="M899.3,1473.8c-27.6,0-49.9-8.7-67-26c-17.1-17.4-25.7-40.5-25.7-69.4v-5.4c0-19.3,3.7-36.6,11.2-51.8
		c7.5-15.2,17.9-27.1,31.4-35.5s28.5-12.7,45.1-12.7c26.4,0,46.8,8.4,61.1,25.2s21.6,40.6,21.6,71.4v17.5H850.4
		c1.3,16,6.7,28.6,16,37.9c9.4,9.3,21.2,14,35.3,14c19.9,0,36.2-8.1,48.7-24.2l23.5,22.4c-7.8,11.6-18.1,20.6-31.1,26.9
		C929.9,1470.6,915.4,1473.8,899.3,1473.8z M894.1,1307.8c-11.9,0-21.6,4.2-28.9,12.5c-7.3,8.3-12,20-14,34.9H934v-3.2
		c-1-14.6-4.8-25.6-11.6-33C915.5,1311.6,906.1,1307.8,894.1,1307.8z"/>
</g>
</svg>
