<?xml version="1.0" encoding="utf-8"?>
<!-- Generator: Adobe Illustrator 26.2.1, SVG Export Plug-In . SVG Version: 6.00 Build 0)  -->
<svg version="1.1" id="Calque_1" xmlns="http://www.w3.org/2000/svg" xmlns:xlink="http://www.w3.org/1999/xlink" x="0px" y="0px"
	 viewBox="0 0 1073 1024" style="enable-background:new 0 0 1073 1024;" xml:space="preserve">
<style type="text/css">
	.st0{fill:none;}
	.st1{fill:#CCCCCC;}
	.st2{fill:#005EFF;}
	.st3{fill:#FFFFFF;}
</style>
<g id="icomoon-ignore">
</g>
<g>
	<path class="st0" d="M706.7,956.9H938c34,0,62.9-27.2,62.9-62.9V484.1l0,0H706.7V956.9z M793.4,606.6h125.8v64.6H793.4V606.6z
		 M793.4,766.4h125.8V831H793.4V766.4z"/>
	<path class="st0" d="M597.3,416.3v-54.9h44.8V65.8H72.3v891.1c0,0,432.9,0,518.2,0V416.3H597.3z M290,827.7h-64.6v-119H290V827.7z
		 M290,589.6h-64.6v-119H290V589.6z M290,349.8h-64.6v-119H290V349.8z M489,827.7h-64.6v-119H489V827.7z M489,589.6h-64.6v-119H489
		V589.6z M489,349.8h-64.6v-119H489V349.8z"/>
	<rect x="424.4" y="470.5" class="st1" width="64.6" height="119"/>
	<rect x="424.4" y="230.7" class="st1" width="64.6" height="119"/>
	<rect x="225.4" y="470.5" class="st1" width="64.6" height="119"/>
	<rect x="424.4" y="708.6" class="st1" width="64.6" height="119"/>
	<rect x="225.4" y="230.7" class="st1" width="64.6" height="119"/>
	<rect x="225.4" y="708.6" class="st1" width="64.6" height="119"/>
	<path class="st1" d="M72.3,956.9V65.8H642v295.6h64.6V1.2H7.7v1020.4h582.8V957C505.2,956.9,72.3,956.9,72.3,956.9z"/>
	<rect x="793.4" y="606.6" class="st2" width="125.8" height="64.6"/>
	<path class="st2" d="M642.5,419.5v602h64.2l0,0H938c71.4,0,127.5-57.8,127.5-127.5V419.5H706.7H642.5z M1000.9,484.1V894
		c0,35.7-28.9,62.9-62.9,62.9H706.7V484.1H1000.9L1000.9,484.1z"/>
	<rect x="793.4" y="766.4" class="st2" width="125.8" height="64.6"/>
	<path class="st3" d="M597.3,416.3h-6.8v540.6c8.5,0,51.6,0,51.6,0V419.5h-44.8V416.3z"/>
	<rect x="597.3" y="416.3" class="st3" width="44.8" height="3.2"/>
	<rect x="642.1" y="416.3" class="st3" width="0.5" height="3.2"/>
</g>
</svg>
