<svg id="Groupe_1362" data-name="Groupe 1362" xmlns="http://www.w3.org/2000/svg" xmlns:xlink="http://www.w3.org/1999/xlink" width="450" height="155.714" viewBox="0 0 450 155.714">
  <defs>
    <clipPath id="clip-path">
      <rect id="Rectangle_578" data-name="Rectangle 578" width="450" height="155.714" fill="#fff"/>
    </clipPath>
  </defs>
  <g id="Groupe_1360" data-name="Groupe 1360" clip-path="url(#clip-path)">
    <path id="Tracé_546" data-name="Tracé 546" d="M62.3,137.1q-5.8-5.057-17.422-7.55-17.431-3.492-20.3-4.928A4.606,4.606,0,0,1,21.7,120.2q0-2.43,2.7-4.241t9.066-1.81q7.731,0,10.949,3.617a10,10,0,0,1,2.12,5.428H65.981q-1.3-12.475-10.083-17.561t-22.735-5.085q-14.705,0-22.808,6.767t-8.1,16.19q0,7.986,5.185,12.226,5.182,4.31,17.862,7.176,17.608,3.811,20.344,5.366a4.967,4.967,0,0,1,2.734,4.557q0,3.118-3.4,4.679a22.26,22.26,0,0,1-9.152,1.561q-9.806,0-13.436-3.559-2.057-1.993-2.674-6.739H0a21.224,21.224,0,0,0,8.377,17.252q8.375,6.766,25.946,6.769,17.231,0,25.467-6.4a19.969,19.969,0,0,0,8.238-16.5A16.423,16.423,0,0,0,62.3,137.1" transform="translate(0 -58.525)" fill="#fff"/>
    <path id="Tracé_547" data-name="Tracé 547" d="M215.271,123.81q-16.537,0-24.657,9.3a33.935,33.935,0,0,0,0,44.055q8.12,9.164,24.657,9.164t24.657-9.164a33.936,33.936,0,0,0,0-44.055q-8.121-9.3-24.657-9.3m11.24,44.881q-3.944,4.782-11.3,4.781t-11.328-4.781q-3.972-4.782-3.972-13.593t3.972-13.564q3.972-4.756,11.328-4.756t11.3,4.756q3.941,4.754,3.943,13.564t-3.943,13.593" transform="translate(-106.227 -72.068)" fill="#fff"/>
    <path id="Tracé_548" data-name="Tracé 548" d="M850.379,93.225H833.784v16.356h-8.945V120.5h8.945v36.1q0,5.488,2.824,8.124,4.352,4.144,16.242,3.766l7.944-.268V156.767c-.55.036-1.11.064-1.678.081s-1.108.028-1.616.028q-5.12,0-6.12-.888t-1-4.493V120.5h10.415V109.581H850.379Z" transform="translate(-480.127 -54.265)" fill="#fff"/>
    <path id="Tracé_549" data-name="Tracé 549" d="M987.584,148.135a27.4,27.4,0,0,0-5.109-12.124,25.624,25.624,0,0,0-11.084-8.677,39.5,39.5,0,0,0-15.085-2.748q-14.1,0-22.94,8.131t-8.834,23.371q0,16.265,9.786,23.48a37.06,37.06,0,0,0,22.593,7.216q15.515,0,24.134-8.555,5.54-5.38,6.217-10.6H970.138a13.139,13.139,0,0,1-3.451,4.037,15.1,15.1,0,0,1-9.312,2.69,18.269,18.269,0,0,1-9.246-2.2q-6.319-3.552-6.709-12.375h46.717a68.659,68.659,0,0,0-.554-11.639m-45.752,1.523a15.371,15.371,0,0,1,4.465-9.076q3.557-3.351,10.014-3.353a15.563,15.563,0,0,1,9.945,3.162q4.013,3.162,4.469,9.266Z" transform="translate(-538.157 -72.52)" fill="#fff"/>
    <path id="Tracé_550" data-name="Tracé 550" d="M571.372,126.462H537.82V134.5h10.035V189.05H537.82v8.039h43.653V189.05h-10.1Z" transform="translate(-313.058 -73.611)" fill="#fff"/>
    <path id="Tracé_551" data-name="Tracé 551" d="M578.34,59.833a12.168,12.168,0,0,0,3.69-8.934,12.328,12.328,0,0,0-3.69-9.07,12.163,12.163,0,0,0-8.934-3.69,12.434,12.434,0,0,0-9.1,3.69,12.266,12.266,0,0,0-3.72,9.07,12.08,12.08,0,0,0,3.72,8.969,12.5,12.5,0,0,0,9.1,3.655,12.161,12.161,0,0,0,8.934-3.69" transform="translate(-323.978 -22.201)" fill="#fff"/>
    <path id="Tracé_552" data-name="Tracé 552" d="M714.976,127.334a25.624,25.624,0,0,1,11.084,8.676,27.4,27.4,0,0,1,5.109,12.124,68.706,68.706,0,0,1,.554,11.64H685.006q.389,8.824,6.709,12.375a18.265,18.265,0,0,0,9.246,2.2,15.1,15.1,0,0,0,9.312-2.69,13.136,13.136,0,0,0,3.451-4.036h17.124q-.68,5.221-6.217,10.6-8.619,8.557-24.134,8.555a37.056,37.056,0,0,1-22.594-7.216q-9.788-7.214-9.786-23.48,0-15.237,8.834-23.371t22.94-8.131a39.486,39.486,0,0,1,15.085,2.749m-25.093,13.247a15.367,15.367,0,0,0-4.465,9.076h28.894q-.457-6.1-4.469-9.266a15.561,15.561,0,0,0-9.945-3.162q-6.459,0-10.014,3.352" transform="translate(-388.902 -72.519)" fill="#fff"/>
    <path id="Tracé_553" data-name="Tracé 553" d="M401.368,147.406a12.934,12.934,0,0,0-2.418-5.918q-2.833-3.551-8.789-3.551-8.5,0-11.622,7.7a29.427,29.427,0,0,0-1.651,10.84,27.079,27.079,0,0,0,1.651,10.358q3.009,7.316,11.326,7.316,5.9,0,8.377-2.9a13.7,13.7,0,0,0,3.008-7.532h17.124a24.383,24.383,0,0,1-5.537,13.235q-7.895,10.062-23.385,10.061t-22.8-8.393q-7.3-8.394-7.3-21.766,0-15.089,8.069-23.483t22.269-8.394q12.075,0,19.762,4.95t9.1,17.486Z" transform="translate(-209.174 -72.743)" fill="#fff"/>
    <path id="Tracé_554" data-name="Tracé 554" d="M485.358,1.524a75.443,75.443,0,0,1,69,44.918c.685.029,1.359.073,2.029.127a77.684,77.684,0,0,0-142.558.486c.784-.125,1.586-.225,2.4-.31a75.443,75.443,0,0,1,69.13-45.221" transform="translate(-240.884 -0.001)" fill="#fff"/>
    <path id="Tracé_554_-_Contour" data-name="Tracé 554 - Contour" d="M413.01,47.692l.358-.834a78.184,78.184,0,0,1,143.476-.49l.335.765-.833-.066c-.717-.057-1.375-.1-2.011-.126l-.31-.013-.126-.284a74.971,74.971,0,0,0-137.214.3l-.117.267-.289.03c-.881.092-1.657.192-2.373.307ZM485.21.5a77.7,77.7,0,0,0-15.658,1.59,76.727,76.727,0,0,0-27.743,11.768,77.366,77.366,0,0,0-27.162,32.57c.392-.053.8-.1,1.24-.151a75.971,75.971,0,0,1,138.8-.322c.294.014.594.032.9.052A77.041,77.041,0,0,0,485.21.5Z" transform="translate(-240.884 -0.001)" fill="#fff"/>
    <path id="Tracé_555" data-name="Tracé 555" d="M494.1,321.055a75.346,75.346,0,0,1-63.15-34.192c-.365.008-.724.023-1.094.023-.424,0-.835-.013-1.251-.021a77.645,77.645,0,0,0,130.757-.092q-1-.035-1.979-.107A75.356,75.356,0,0,1,494.1,321.055" transform="translate(-249.487 -166.864)" fill="#fff"/>
    <path id="Tracé_555_-_Contour" data-name="Tracé 555 - Contour" d="M493.956,323.079a78.231,78.231,0,0,1-65.768-35.944l-.507-.788.937.018.362.008c.287.007.584.013.88.013.24,0,.483-.007.717-.013l.366-.009.277-.006.152.232a75.336,75.336,0,0,0,26.536,24.652,74.85,74.85,0,0,0,72.5-.057,75.34,75.34,0,0,0,26.563-24.791l.161-.248.295.022c.651.048,1.31.083,1.959.106l.878.03-.474.739a78.584,78.584,0,0,1-27.756,26.143,77.756,77.756,0,0,1-38.075,9.893Zm-64.412-35.695a77.584,77.584,0,0,0,26.874,24.956,77.07,77.07,0,0,0,75.125-.026,77.586,77.586,0,0,0,26.927-25.078q-.413-.021-.825-.049a76.341,76.341,0,0,1-26.755,24.873,75.818,75.818,0,0,1-88.445-10.8,76.443,76.443,0,0,1-11.757-13.886l-.084,0c-.241.007-.491.014-.745.014Z" transform="translate(-249.487 -166.864)" fill="#fff"/>
  </g>
</svg>
