<svg xmlns="http://www.w3.org/2000/svg" width="450" height="155" viewBox="0 0 450 155">
  <g id="Logo-societe_2015" data-name="Logo-societe 2015" transform="translate(-11.6 -13.1)">
    <g id="Groupe_617" data-name="Groupe 617" transform="translate(180.908 13.1)">
      <path id="Tracé_347" data-name="Tracé 347" d="M730.623,236.6a16.613,16.613,0,0,0,8.351,1.972,14.358,14.358,0,0,0,7.05-1.595,68.162,68.162,0,0,0,2.014-9.274H725C725.588,231.9,727.434,234.834,730.623,236.6Z" transform="translate(-595.919 -138.253)" fill="#005eff"/>
      <path id="Tracé_348" data-name="Tracé 348" d="M747.624,176.57a13.743,13.743,0,0,0-8.812-2.77c-3.818,0-6.756,1.007-8.771,2.9a11.747,11.747,0,0,0-3.441,5.875h23.29c-.042-1.259-.084-2.434-.168-3.651A8.55,8.55,0,0,0,747.624,176.57Z" transform="translate(-596.847 -106.813)" fill="#005eff"/>
      <path id="Tracé_349" data-name="Tracé 349" d="M536.158,121.979c-7.05-5.129-10.575-13.553-10.575-24.937,0-10.634,3.189-18.932,9.484-24.687,6.253-5.713,14.436-8.59,24.3-8.59a46.743,46.743,0,0,1,6.463.417,78.152,78.152,0,0,0-146.916.792,40.29,40.29,0,0,1,9.484-1.043c8.393,0,15.443,1.751,20.856,5.254,5.623,3.586,8.98,9.925,9.987,18.807a2.143,2.143,0,0,1-.462,1.5,1.926,1.926,0,0,1-1.427.667H440.1a1.965,1.965,0,0,1-1.888-1.626,11.129,11.129,0,0,0-2.056-5.046c-1.553-1.877-3.945-2.836-7.344-2.836-4.952,0-8.1,2.085-9.9,6.505A27.513,27.513,0,0,0,417.4,97.251a24.958,24.958,0,0,0,1.511,9.591c1.72,4.212,4.784,6.172,9.652,6.172,3.357,0,5.707-.751,6.966-2.252a12.094,12.094,0,0,0,2.6-6.505,1.864,1.864,0,0,1,1.888-1.626h17.205a1.841,1.841,0,0,1,1.385.584,1.756,1.756,0,0,1,.5,1.418,26.2,26.2,0,0,1-5.959,14.22c-5.707,7.089-14.1,10.717-25.011,10.717-1.049,0-2.1-.042-3.105-.083a78.235,78.235,0,0,0,134.872.083A39.624,39.624,0,0,1,536.158,121.979Z" transform="translate(-417.4 -13.1)" fill="#005eff"/>
    </g>
    <path id="Tracé_350" data-name="Tracé 350" d="M31.323,163.127c.42,3.189,1.3,5.413,2.686,6.756,2.434,2.392,6.924,3.567,13.512,3.567a22.953,22.953,0,0,0,9.19-1.553c2.266-1.049,3.4-2.6,3.4-4.7a5.008,5.008,0,0,0-2.728-4.574q-2.77-1.574-20.436-5.371c-8.477-1.93-14.478-4.322-17.919-7.218-3.483-2.854-5.2-6.924-5.2-12.3,0-6.295,2.728-11.708,8.141-16.24s13.051-6.8,22.912-6.8c9.316,0,16.953,1.721,22.828,5.12s9.274,9.274,10.113,17.625H58.306a9.929,9.929,0,0,0-2.14-5.455c-2.14-2.434-5.833-3.651-10.995-3.651-4.238,0-7.3.588-9.106,1.8s-2.728,2.644-2.728,4.238a4.618,4.618,0,0,0,2.9,4.448q2.9,1.448,20.395,4.952c7.763,1.679,13.6,4.2,17.5,7.6a16.6,16.6,0,0,1,5.749,12.841,20.112,20.112,0,0,1-8.267,16.576c-5.5,4.28-14.058,6.42-25.556,6.42q-17.625,0-26.06-6.8A21.28,21.28,0,0,1,11.6,163.085H31.323Z" transform="translate(0 -59.465)" fill="#000e47"/>
    <path id="Tracé_351" data-name="Tracé 351" d="M251.559,191.788c-5.455,6.127-13.68,9.19-24.759,9.19s-19.3-3.063-24.759-9.19a32.129,32.129,0,0,1-8.141-22.157,32.565,32.565,0,0,1,8.141-22.073c5.455-6.211,13.68-9.358,24.759-9.358s19.3,3.105,24.759,9.358a34.108,34.108,0,0,1,0,44.23Zm-13.47-8.477c2.644-3.189,3.945-7.763,3.945-13.638,0-5.917-1.3-10.449-3.945-13.638s-6.421-4.784-11.33-4.784-8.729,1.595-11.372,4.784-3.987,7.721-3.987,13.638,1.343,10.449,3.987,13.638,6.462,4.784,11.372,4.784S235.444,186.5,238.088,183.311Z" transform="translate(-106.141 -73.155)" fill="#000e47"/>
    <path id="Tracé_352" data-name="Tracé 352" d="M412.916,161.935a13.322,13.322,0,0,0-2.434-5.959c-1.888-2.392-4.826-3.567-8.812-3.567-5.707,0-9.568,2.56-11.666,7.721A29.832,29.832,0,0,0,388.325,171,26.7,26.7,0,0,0,390,181.406c2.014,4.91,5.791,7.344,11.372,7.344,3.945,0,6.756-.965,8.393-2.9a13.387,13.387,0,0,0,3.021-7.553H430a24.655,24.655,0,0,1-5.539,13.3c-5.287,6.756-13.093,10.113-23.5,10.113q-15.548,0-22.912-8.435T370.7,171.419q0-15.17,8.1-23.584c5.413-5.623,12.841-8.435,22.367-8.435,8.1,0,14.687,1.679,19.849,4.952,5.162,3.315,8.183,9.148,9.148,17.541H412.916Z" transform="translate(-209.068 -73.854)" fill="#000e47"/>
    <path id="Tracé_353" data-name="Tracé 353" d="M726.6,141.826a25.708,25.708,0,0,1,11.12,8.729,27.052,27.052,0,0,1,5.12,12.17,68.046,68.046,0,0,1,.546,11.708H696.511c.252,5.917,2.518,10.029,6.756,12.421a18.386,18.386,0,0,0,9.274,2.224,15.183,15.183,0,0,0,9.358-2.686,13,13,0,0,0,3.483-4.07h17.205c-.462,3.483-2.518,7.05-6.253,10.659-5.749,5.749-13.848,8.6-24.213,8.6a37.4,37.4,0,0,1-22.7-7.26q-9.82-7.239-9.82-23.584c0-10.2,2.938-18.044,8.854-23.458q8.875-8.183,23.038-8.183A38.613,38.613,0,0,1,726.6,141.826Zm-25.178,13.3a15.427,15.427,0,0,0-4.49,9.106h29c-.294-4.07-1.8-7.176-4.49-9.316a15.724,15.724,0,0,0-9.988-3.189C707.128,151.771,703.813,152.9,701.421,155.128Z" transform="translate(-388.924 -73.678)" fill="#000e47"/>
    <path id="Tracé_354" data-name="Tracé 354" d="M836.2,132.361V121.408h8.981V105h16.66v16.408h10.449v10.953H861.84V163.5c0,2.434.336,3.9,1.007,4.532.672.588,2.728.881,6.127.881.5,0,1.049,0,1.637-.042.587,0,1.133-.042,1.678-.084v11.5l-7.973.252c-7.973.252-13.386-1.007-16.324-3.777-1.889-1.762-2.854-4.49-2.854-8.141V132.361Z" transform="translate(-479.998 -53.805)" fill="#000e47"/>
    <path id="Tracé_355" data-name="Tracé 355" d="M983,141.826a25.706,25.706,0,0,1,11.12,8.729,27.049,27.049,0,0,1,5.12,12.17,68.071,68.071,0,0,1,.546,11.708H952.911c.252,5.917,2.518,10.029,6.756,12.421a18.386,18.386,0,0,0,9.274,2.224,15.182,15.182,0,0,0,9.358-2.686,13,13,0,0,0,3.483-4.07h17.205c-.462,3.483-2.518,7.05-6.253,10.659-5.749,5.749-13.848,8.6-24.213,8.6a37.4,37.4,0,0,1-22.7-7.26Q936,187.084,936,170.739c0-10.2,2.938-18.044,8.854-23.458q8.876-8.183,23.038-8.183A38.613,38.613,0,0,1,983,141.826Zm-25.178,13.3a15.429,15.429,0,0,0-4.49,9.106h29c-.294-4.07-1.8-7.176-4.49-9.316a15.724,15.724,0,0,0-9.988-3.189C963.57,151.771,960.213,152.9,957.821,155.128Z" transform="translate(-538.206 -73.678)" fill="#000e47"/>
    <path id="Tracé_356" data-name="Tracé 356" d="M582.9,204.162h10.155v8.057H549.2v-8.057h10.071v-54.8H549.2V141.3h33.7Z" transform="translate(-312.954 -75.022)" fill="#fff"/>
    <path id="Tracé_357" data-name="Tracé 357" d="M568,65.8A12.683,12.683,0,0,1,580.883,53a12.192,12.192,0,0,1,8.98,3.693,12.342,12.342,0,0,1,3.693,9.106,12.609,12.609,0,0,1-12.673,12.673,12.635,12.635,0,0,1-9.148-3.651A12.1,12.1,0,0,1,568,65.8Z" transform="translate(-323.855 -23.156)" fill="#fff"/>
  </g>
</svg>
